<svg xmlns="http://www.w3.org/2000/svg" width="198" height="144" viewBox="0 0 198 144">
  <g id="Add_photo" data-name="Add photo" transform="translate(-446 -2016)">
    <g id="Rectangle_39" data-name="Rectangle 39" transform="translate(446 2016)" fill="none" stroke="#a3a4a3" stroke-width="1" stroke-dasharray="5">
      <rect width="198" height="144" rx="5" stroke="none"/>
      <rect x="0.5" y="0.5" width="197" height="143" rx="4.5" fill="none"/>
    </g>
    <text id="Add_image" data-name="Add image" transform="translate(511 2109)" fill="#010302" font-size="14" font-family="OpenSans-Regular, Open Sans" opacity="0.36"><tspan x="0" y="0">Add image</tspan></text>
    <g id="Camera" transform="translate(499.708 2064)" opacity="0.48">
      <g id="Group_599" data-name="Group 599" transform="translate(41.845 8.682)">
        <g id="Group_598" data-name="Group 598" transform="translate(0)">
          <path id="Path_1583" data-name="Path 1583" d="M204.255,134.529a3.447,3.447,0,1,0,3.447,3.447A3.451,3.451,0,0,0,204.255,134.529Z" transform="translate(-200.808 -134.529)"/>
        </g>
      </g>
      <g id="Group_601" data-name="Group 601" transform="translate(31.292)">
        <g id="Group_600" data-name="Group 600" transform="translate(0)">
          <path id="Path_1584" data-name="Path 1584" d="M58.371,4.469H52.4L50.475.522A.919.919,0,0,0,49.652,0H40.932a.919.919,0,0,0-.824.522L38.183,4.469h-5.97a.933.933,0,0,0-.921.944V21.056a.933.933,0,0,0,.921.944H58.371a.933.933,0,0,0,.921-.944V5.413A.933.933,0,0,0,58.371,4.469ZM45.292,17.531a5.415,5.415,0,1,1,5.281-5.413A5.354,5.354,0,0,1,45.292,17.531Z" transform="translate(-31.292 0)"/>
        </g>
      </g>
    </g>
  </g>
</svg>
