<?xml version="1.0" encoding="utf-8"?>
<!-- Generator: Adobe Illustrator 26.0.1, SVG Export Plug-In . SVG Version: 6.00 Build 0)  -->
<svg version="1.1" id="Layer_1" xmlns="http://www.w3.org/2000/svg" xmlns:xlink="http://www.w3.org/1999/xlink" x="0px" y="0px"
	 viewBox="0 0 456 456" style="enable-background:new 0 0 456 456;" xml:space="preserve">
<style type="text/css">
	.st0{fill:#DD2450;}
	.st1{fill:#58BEBC;}
	.st2{fill:#28285C;}
	.st3{fill:#343434;}
	.st4{fill:#212728;}
	.st5{fill:#EAB32D;}
</style>
<g>
	<g>
		<path class="st0" d="M171.9,400.9c0.1-28.3,23.1-51.2,51.2-51.2c27.7,0.1,50.5,23.2,50.5,51.2c0,28.4-22.8,51.5-50.9,51.5
			C194.8,452.5,171.9,429.3,171.9,400.9z"/>
		<path class="st1" d="M43.5,270.3c0.3-28.6,23.5-51.1,51.9-50.7c27.9,0.6,50.1,23.6,49.8,52.1c-0.3,28-23.4,50.8-51.2,50.7
			C65.9,322.2,43.2,298.9,43.5,270.3z"/>
		<path class="st2" d="M361.4,322.3c-28.3-0.1-50.9-23.4-50.7-51.9c0.3-28.1,23.2-50.8,51.1-50.7c28.3,0.1,50.9,23.4,50.7,51.9
			C412.2,299.8,389.4,322.5,361.4,322.3z"/>
		<path class="st3" d="M94.2,162.4c-11.3-0.1-20.5-9.7-20.4-21.1s9.6-20.7,20.8-20.5c11.4,0.1,20.5,9.6,20.4,21
			C115,153.2,105.4,162.5,94.2,162.4z"/>
		<path class="st4" d="M384.2,24.7c-0.1,11.4-9.7,20.7-21,20.5s-20.5-9.7-20.4-21.1c0.1-11.4,9.6-20.7,20.8-20.5
			C375.2,3.9,384.3,13.3,384.2,24.7z"/>
		<path class="st4" d="M243.5,271.1c-0.1,11.4-9.4,20.7-20.8,20.7c-11.3,0-20.5-9.6-20.4-21s9.4-20.7,20.8-20.7
			C234.3,250.3,243.5,259.9,243.5,271.1z"/>
		<path class="st4" d="M115.1,401.1c0,11.4-9.3,20.8-20.5,20.8s-20.7-9.4-20.7-20.8c0-11.4,9.3-20.8,20.5-20.8
			S115,389.8,115.1,401.1z"/>
		<path class="st4" d="M382.2,141.5c0,11.4-9.3,20.8-20.5,20.8s-20.7-9.4-20.7-20.8c0-11.4,9.3-20.8,20.5-20.8
			C372.8,120.7,382.1,130.1,382.2,141.5z"/>
		<path class="st5" d="M171.9,141.4c0.1-28.3,23.1-51.2,51.2-51.2c27.7,0.1,50.5,23.2,50.5,51.2c0,28.4-22.8,51.5-50.9,51.5
			C194.8,192.9,171.9,169.7,171.9,141.4z"/>
	</g>
</g>
</svg>
